# xmcd
#
# Track frame offsets:
#	150
#	16432
#	30448
#	46892
#	58078
#	79989
#	92213
#	105506
#	127438
#	145808
#	160071
#	173092
#	185324
#	197971
#	209500
#	224631
#	239107
#	252535
#	275980
#	290920
#
# Disc length: 4103 seconds
#
# Revision: 0
# Processed by: cddbd v1.5.2PL0 Copyright (c) Steve Scherf et al.
# Submitted via: audiograbber 1.83.01
#
DISCID=47100514
DTITLE=Various Artist - Original Line Dance Album
DYEAR=2007
DGENRE=
TTITLE0=Lacy J. Dalton - Black Coffee (1990)
TTITLE1=Larry Gatlin and Gatlin Brothers - Boogie and Beethoven (1990)
TTITLE2=Suzy Bogguss - Eat at Joe's (1992)
TTITLE3=Sam Millar - I've Been Found (1998)
TTITLE4=Charlie Daniels - Tennessee Two Step (1993)
TTITLE5=Pirates of the Mississippi - The Wild Side of Life (1993)
TTITLE6=Tanya Tucker - San Antonio Stroll (1990)
TTITLE7=Deana Carter - Strawberry Wine (1996)
TTITLE8=Chris Ledoux - Honky Tonk World (1994)
TTITLE9=George Ducas - In No Time At All (1994)
TTITLE10=Julie Reeves - Party Down (1999)
TTITLE11=Sharon 'B' - Blue Finger Lou (2001)
TTITLE12=Glen Campbell - Southern Nights (1977)
TTITLE13=Crystal Gayle - Never Ending Song of Love (1977)
TTITLE14=Hermes House Band - Country Roads (2001)
TTITLE15=Eddie Rabbit - I Love a Rainy Night (1980)
TTITLE16=Mel McDaniel - Baby's Got Her Blue Jeans On (1988)
TTITLE17=Chris Cagle - It Takes Two (2003)
TTITLE18=Asleep at the Wheel - She Came to Dance (1995)
TTITLE19=Billy Dean - That Girl's Been Spyin' on Me (dance mix) (1995)
EXTD=
EXTT0=
EXTT1=
EXTT2=
EXTT3=
EXTT4=
EXTT5=
EXTT6=
EXTT7=
EXTT8=
EXTT9=
EXTT10=
EXTT11=
EXTT12=
EXTT13=
EXTT14=
EXTT15=
EXTT16=
EXTT17=
EXTT18=
EXTT19=
PLAYORDER=
